<svg xmlns="http://www.w3.org/2000/svg" version="1.1" xmlns:xlink="http://www.w3.org/1999/xlink" xmlns:svgjs="http://svgjs.dev/svgjs" viewBox="0 0 800 800"><defs><linearGradient x1="50%" y1="0%" x2="50%" y2="100%" id="ccchaos-grad"><stop stop-color="hsl(206, 75%, 49%)" stop-opacity="1" offset="0%"></stop><stop stop-color="hsl(331, 90%, 56%)" stop-opacity="1" offset="100%"></stop></linearGradient></defs><g stroke-width="2" stroke="url(#ccchaos-grad)" fill="none" stroke-linecap="round"><path d="M119.71 121.28Q129.03 124.47 138.35 126.8 147.68 128.06 157 128.17 166.32 127.11 175.64 124.96 184.97 121.91 194.29 118.2 203.61 114.15 212.93 110.09 222.26 106.34 231.58 103.23 240.9 101.01 250.22 99.86 259.55 99.88 268.87 101.06 278.19 103.31 287.51 106.44 296.84 110.19 306.16 114.26 315.48 118.31 324.8 122 334.13 125.03 343.45 127.15 352.77 128.18 362.09 128.04 371.42 126.75 380.74 124.4 390.06 121.19 399.38 117.38 408.71 113.3 418.03 109.28 427.35 105.64 436.67 102.69 446 100.68 455.32 99.77 464.64 100.03 473.96 101.44 483.29 103.89 492.61 107.17 501.93 111.02 511.25 115.11 520.58 119.11 529.9 122.69 539.22 125.55 548.54 127.46 557.87 128.25 567.19 127.87 576.51 126.34 585.84 123.8 595.16 120.44 604.48 116.55 613.8 112.45 623.13 108.48 632.45 104.97 641.77 102.2 651.09 100.4 660.42 99.72 669.74 100.23 679.06 101.87 688.38 104.51 697.71 107.93 707.03 111.86 716.35 115.96 721.92 124.94 723.87 133.92 721.98 142.91 716.47 151.89 707.87 160.87 697.06 169.86 685.14 178.84 673.3 187.83 662.74 196.81 654.54 205.79 649.51 214.78 648.17 223.76 650.64 232.74 656.69 241.73 665.7 250.71 676.76 259.69 688.76 268.68 700.47 277.66 710.72 286.64 718.47 295.63 722.95 304.61 723.69 313.6 720.62 322.58 714.05 331.56 704.65 340.55 693.36 349.53 681.33 358.51 669.78 367.5 659.86 376.48 652.58 385.46 648.67 394.45 648.54 403.43 652.19 412.41 659.26 421.4 669.02 430.38 680.51 439.37 692.54 448.35 703.92 457.33 713.48 466.32 720.27 475.3 723.59 484.28 723.12 493.27 718.9 502.25 711.35 511.23 701.24 520.22 689.59 529.2 677.58 538.18 666.42 547.17 657.23 556.15 650.95 565.14 648.22 574.12 649.29 583.1 654.08 592.09 662.09 601.07 672.51 610.05 684.3 619.04 696.26 628.02 707.18 637 715.96 645.99 721.72 654.97 723.86 663.95 722.18 672.94 708.01 681.28 689.95 670.82 680.73 662.25 671.5 655.64 662.28 651.54 653.06 650.28 643.84 651.97 634.62 656.47 625.4 663.4 616.18 672.2 606.95 682.14 597.73 692.4 588.51 702.13 579.29 710.52 570.07 716.9 560.85 720.72 551.62 721.67 542.4 719.68 533.18 714.91 523.96 707.76 514.74 698.8 505.52 688.79 496.29 678.55 487.07 668.92 477.85 660.7 468.63 654.57 459.41 651.04 450.19 650.39 440.97 652.67 431.74 657.71 422.52 665.09 413.3 674.19 404.08 684.26 394.86 694.48 385.64 704 376.41 712.03 367.19 717.91 357.97 721.16 348.75 721.5 339.53 718.92 330.31 713.61 321.08 706.03 311.86 696.79 302.64 686.67 293.42 676.48 284.2 667.08 274.98 659.25 265.76 653.62 256.53 650.66 247.31 650.62 238.09 653.5 228.87 659.06 219.65 666.85 210.43 676.21 201.2 686.39 191.98 696.53 182.76 705.8 173.54 713.44 164.32 718.81 155.1 721.47 145.87 721.2 136.65 718.03 127.43 712.22 118.21 704.23 119.8 695.13 120.8 686.02 121.12 676.91 120.72 667.8 119.63 658.69 117.98 649.58 115.93 640.47 113.68 631.37 111.46 622.26 109.5 613.15 107.99 604.04 107.09 594.93 106.88 585.82 107.4 576.71 108.58 567.61 110.31 558.5 112.41 549.39 114.67 540.28 116.86 531.17 118.77 522.06 120.19 512.95 120.98 503.84 121.07 494.74 120.45 485.63 119.17 476.52 117.37 467.41 115.23 458.3 112.96 449.19 110.8 440.08 108.96 430.98 107.63 421.87 106.95 412.76 106.97 403.65 107.71 394.54 109.08 385.43 110.94 376.32 113.12 367.22 115.38 358.11 117.51 349 119.27 339.89 120.51 330.78 121.09 321.67 120.95 312.56 120.11 303.46 118.65 294.35 116.72 285.24 114.51 276.13 112.26 267.02 110.18 257.91 108.48 248.8 107.34 239.7 106.88 230.59 107.13 221.48 108.07 212.37 109.62 203.26 111.61 194.15 113.83 185.04 116.08 175.93 118.11 166.83 119.73 157.72 120.77 148.61 121.12 139.5 120.76 130.39 119.71 121.28" stroke-dasharray="0 9" transform="rotate(0, 400, 400)" opacity="0.82"></path><path d="M132.48 136.41Q150.56 139.57 168.64 138.35 186.73 133.14 204.81 125.48 222.89 117.68 240.98 112.07 259.06 110.33 277.14 112.99 295.22 119.24 313.31 127.22 331.39 134.53 349.47 138.98 367.56 139.25 385.64 135.24 403.72 128.17 421.81 120.14 439.89 113.57 457.97 110.42 476.06 111.64 494.14 116.86 512.22 124.52 530.3 132.32 548.39 137.92 566.47 139.66 584.55 137 602.64 130.74 620.72 122.76 638.8 115.46 656.89 111.01 674.97 110.75 693.05 114.76 711.13 121.83 709.81 138.88 695.77 155.93 674.15 172.98 652.84 190.03 639.61 207.08 639.31 224.13 652.03 241.17 673.14 258.22 694.93 275.27 709.44 292.32 711.37 309.37 700.02 326.42 679.54 343.47 657.39 360.52 641.68 377.56 638.12 394.61 648.03 411.66 667.79 428.71 690.17 445.76 707.02 462.81 712.17 479.86 703.75 496.91 684.83 513.95 662.32 531 644.44 548.05 637.71 565.1 644.6 582.15 662.58 599.2 685.1 616.25 703.93 633.3 700.54 650.36 670.92 640.74 652.94 641.36 634.96 652.06 616.98 669.63 599.01 688.81 581.03 703.85 563.05 710.24 545.07 706.08 527.1 692.6 509.12 673.85 491.14 655.44 473.17 642.89 455.19 639.96 437.21 647.53 419.23 663.32 401.26 682.62 383.28 699.63 365.3 709.26 347.32 708.62 329.35 697.91 311.37 680.34 293.39 661.16 275.41 646.13 257.44 639.74 239.46 643.92 221.48 657.41 203.5 676.17 185.53 694.57 167.55 707.11 149.57 710.03 131.59 702.45 132.7 684.76 130.98 667.07 127.09 649.38 122.43 631.7 118.7 614.01 117.28 596.32 118.67 578.63 122.37 560.94 127.03 543.25 130.95 525.56 132.69 507.88 131.62 490.19 128.14 472.5 123.5 454.81 119.41 437.12 117.36 419.43 118.1 401.74 121.35 384.06 125.94 366.37 130.18 348.68 132.53 330.99 132.13 313.3 129.12 295.61 124.61 277.92 120.24 260.23 117.61 242.55 117.67 224.86 120.41 207.17 124.82 189.48 129.3 171.79 132.2 154.1 132.48 136.41" stroke-dasharray="6 5" transform="rotate(4.04, 400, 400)" opacity="0.45"></path><path d="M144.22 150.3Q161.6 150.77 178.97 147.15 196.35 140.45 213.73 132.51 231.11 125.54 248.48 121.46 265.86 121.4 283.24 125.38 300.62 132.3 317.99 140.24 335.37 147.01 352.75 150.73 370.13 150.37 387.5 146.04 404.88 138.93 422.26 131 439.64 124.46 457.01 121.11 474.39 121.88 491.77 126.55 509.15 133.84 526.53 141.72 543.9 148.02 561.28 150.99 578.66 149.81 596.04 144.81 613.41 137.37 630.79 129.55 648.17 123.51 665.55 120.93 682.92 122.51 700.3 127.82 691.24 143.99 672.98 160.15 651.7 176.32 634.56 192.48 627.35 208.65 632.5 224.81 648.28 240.98 669.36 257.15 688.62 273.31 699.58 289.48 698.54 305.64 685.84 321.81 665.77 337.97 645.11 354.14 630.81 370.3 627.71 386.47 636.85 402.63 655.14 418.8 676.42 434.96 693.51 451.13 700.65 467.29 695.41 483.46 679.58 499.62 658.5 515.79 639.26 531.95 628.37 548.12 629.5 564.28 642.26 580.45 662.35 596.61 683 612.78 690.06 630.89 665.51 629.17 648.13 635.15 630.75 649.11 613.38 667.18 596 684.38 578.62 695.94 561.25 698.65 543.87 691.78 526.49 677.23 509.12 659.01 491.74 642.17 474.36 631.37 456.99 629.59 439.61 637.34 422.23 652.46 404.86 670.77 387.48 687.21 370.1 697.22 352.73 698.04 335.35 689.44 317.97 673.8 300.6 655.45 283.22 639.46 265.84 630.26 248.47 630.39 231.09 639.82 213.72 655.94 196.34 674.29 178.96 689.79 161.59 698.15 144.21 697.06 143.52 679.98 140.3 662.89 135.62 645.81 131.07 628.72 128.18 611.63 127.93 594.55 130.39 577.46 134.75 560.37 139.53 543.29 143.11 526.2 144.3 509.12 142.68 492.03 138.81 474.94 133.99 457.86 129.85 440.77 127.78 423.68 128.48 406.6 131.72 389.51 136.4 372.43 140.94 355.34 143.82 338.25 144.06 321.17 141.57 304.08 137.21 286.99 132.44 269.91 128.86 252.82 127.7 235.73 129.33 218.65 133.21 201.56 138.03 184.48 142.16 167.39 144.22 150.3" stroke-dasharray="5 4" transform="rotate(8.08, 400, 400)" opacity="0.57"></path><path d="M154.64 162.5Q171.18 160.3 187.73 154.72 204.27 147.17 220.81 139.57 237.35 133.87 253.9 131.5 270.44 133.08 286.98 138.21 303.52 145.57 320.07 153.29 336.61 159.41 353.15 162.37 369.69 161.42 386.24 156.79 402.78 149.67 419.32 141.87 435.86 135.37 452.41 131.84 468.95 132.16 485.49 136.26 502.03 143.09 518.58 150.92 535.12 157.75 551.66 161.84 568.2 162.15 584.75 158.6 601.29 152.1 617.83 144.3 634.37 137.18 650.92 132.57 668.38 140.78 649.52 165.27 630.83 180.61 619.02 195.94 617.76 211.28 627.44 226.62 645.06 241.96 665.14 257.3 681.45 272.64 688.92 287.97 685.24 303.31 671.54 318.65 652.09 333.99 632.91 349.33 619.98 364.67 617.29 380 625.7 395.34 642.58 410.68 662.69 426.02 679.8 441.36 688.58 456.7 686.31 472.04 673.7 487.37 654.65 502.71 635.1 518.05 621.1 533.39 617 548.73 624.09 564.07 640.15 579.4 660.2 594.74 674.71 614.45 654.78 620.92 638.14 631.18 621.5 647 604.86 664.35 588.23 678.8 571.59 686.69 554.95 685.99 538.31 676.9 521.68 661.72 505.04 644.32 488.4 629.13 471.76 620.01 455.12 619.29 438.49 627.16 421.85 641.6 405.21 658.94 388.57 674.77 371.93 685.06 355.3 687.18 338.66 680.6 322.02 666.99 305.38 649.82 288.74 633.46 272.11 622.07 255.47 618.55 238.83 623.81 222.19 636.49 205.55 653.37 188.92 670.16 172.28 682.58 155.64 687.47 153.16 671.06 148.77 654.66 143.83 638.25 139.87 621.85 138.12 605.44 139.13 589.04 142.58 572.63 147.4 556.23 152.1 539.82 155.21 523.42 155.77 507.01 153.6 490.6 149.39 474.2 144.43 457.79 140.26 441.39 138.19 424.98 138.85 408.58 142.04 392.17 146.77 375.77 151.57 359.36 154.95 342.96 155.85 326.55 154.01 310.15 149.99 293.74 145.04 277.34 140.69 260.93 138.31 244.53 138.62 228.12 141.53 211.72 146.14 195.31 151.01 178.91 154.64 162.5" stroke-dasharray="4 5" transform="rotate(12.12, 400, 400)" opacity="0.51"></path><path d="M163.67 172.76Q179.28 168.24 194.89 161.32 210.5 153.64 226.11 146.96 241.72 142.87 257.33 142.3 272.94 145.4 288.55 151.43 304.16 159 319.77 166.33 335.38 171.72 350.99 173.9 366.61 172.38 382.22 167.49 397.83 160.39 413.44 152.73 429.05 146.3 444.66 142.6 460.27 142.49 475.88 146 491.49 152.31 507.1 159.94 522.71 167.13 538.32 172.18 553.93 173.92 569.54 171.94 585.16 166.71 600.77 159.45 616.38 151.85 631.99 145.68 646.57 149.85 626.87 171.89 612.5 186.48 606.53 201.06 610.66 215.64 623.71 230.22 641.97 244.8 660.24 259.38 673.31 273.96 677.46 288.55 671.51 303.13 657.16 317.71 638.49 332.29 620.82 346.87 609.18 361.45 606.88 376.03 614.58 390.62 630.09 405.2 648.99 419.78 665.9 434.36 676 448.94 676.42 463.52 667.03 478.1 650.52 492.69 631.58 507.27 615.6 521.85 607.14 536.43 608.61 551.01 619.58 565.59 636.94 580.17 655.73 594.75 670.62 609.34 654.84 608.59 639.05 615.64 623.27 628.84 607.49 645.11 591.71 660.65 575.93 671.84 560.15 676.07 544.37 672.34 528.59 661.53 512.81 646.16 497.03 629.82 481.25 616.32 465.47 608.82 449.69 609.05 433.91 616.97 418.13 630.73 402.35 647.12 386.57 662.32 370.79 672.77 355.01 676.04 339.23 671.36 323.45 659.84 307.67 644.14 291.89 627.95 276.11 615.04 260.33 608.41 244.55 609.63 228.77 618.39 212.99 632.67 197.21 649.12 181.43 663.91 165.65 673.58 161.67 657.93 156.64 642.28 152 626.63 149.07 610.98 148.68 595.33 150.94 579.68 155.21 564.03 160.27 548.38 164.69 532.73 167.2 517.08 167.09 501.42 164.38 485.77 159.86 470.12 154.81 454.47 150.67 438.82 148.61 423.17 149.22 407.52 152.33 391.87 157.06 376.22 162.05 360.57 165.89 344.92 167.48 329.27 166.37 313.62 162.87 297.96 157.99 282.31 153.11 266.66 149.62 251.01 148.51 235.36 150.11 219.71 153.95 204.06 158.94 188.41 163.67 172.76" stroke-dasharray="10 5" transform="rotate(16.16, 400, 400)" opacity="0.31"></path><path d="M171.47 181.07Q186.09 174.84 200.72 167.37 215.35 160.24 229.98 154.98 244.6 152.7 259.23 153.9 273.86 158.31 288.49 164.99 303.11 172.53 317.74 179.32 332.37 183.91 347 185.32 361.62 183.25 376.25 178.15 390.88 171.09 405.51 163.6 420.13 157.25 434.76 153.4 449.39 152.87 464.02 155.78 478.64 161.51 493.27 168.83 507.9 176.18 522.53 182 537.15 185.06 551.78 184.69 566.41 180.98 581.04 174.71 595.67 167.23 610.29 160.13 623.33 160.75 606.35 180.49 597.36 194.38 597.11 208.28 605.68 222.18 620.83 236.08 638.63 249.97 654.43 263.87 664.15 277.77 665.24 291.67 657.43 305.56 642.74 319.46 625 333.36 608.82 347.25 598.4 361.15 596.46 375.05 603.5 388.95 617.69 402.84 635.34 416.74 651.85 430.64 662.95 444.53 665.73 458.43 659.49 472.33 645.83 486.23 628.32 500.12 611.5 514.02 599.75 527.92 596.13 541.82 601.57 555.71 614.66 569.61 632.01 583.51 649.08 597.4 634.24 601.97 619.4 612.72 604.56 627.36 589.73 642.78 574.89 655.68 560.05 663.33 545.21 664.09 530.37 657.8 515.53 645.8 500.69 630.65 485.85 615.57 471.01 603.77 456.17 597.78 441.33 598.86 426.49 606.79 411.65 619.87 396.81 635.32 381.97 649.85 367.13 660.37 352.29 664.62 337.45 661.72 322.61 652.27 307.77 638.29 292.93 622.75 278.1 608.97 263.26 599.89 248.42 597.42 233.58 602.11 218.74 612.95 203.9 627.64 189.06 643.04 174.22 655.87 169.29 641.03 164.28 626.2 160.5 611.36 158.93 596.52 159.97 581.68 163.36 566.85 168.22 552.01 173.28 537.17 177.22 522.33 179.03 507.5 178.22 492.66 175.02 477.82 170.25 462.98 165.15 448.14 161.05 433.31 159.02 418.47 159.58 403.63 162.59 388.79 167.26 373.96 172.39 359.12 176.63 344.28 178.88 329.44 178.57 314.61 175.76 299.77 171.2 284.93 166.06 270.09 161.68 255.26 159.21 240.42 159.28 225.58 161.88 210.74 166.32 195.91 171.47 181.07" stroke-dasharray="4 10" transform="rotate(20.200000000000003, 400, 400)" opacity="0.53"></path><path d="M178.45 187.68Q192.09 180.55 205.73 173.31 219.38 167.37 233.02 163.87 246.66 163.49 260.31 166.3 273.95 171.77 287.59 178.82 301.23 186.11 314.88 192.21 328.52 195.95 342.16 196.6 355.81 194.03 369.45 188.75 383.09 181.78 396.74 174.46 410.38 168.21 424.02 164.24 437.66 163.32 451.31 165.63 464.95 170.72 478.59 177.6 492.24 184.95 505.88 191.33 519.52 195.53 533.16 196.71 546.81 194.67 560.45 189.78 574.09 183 587.74 175.63 600.49 173.55 588.99 191.26 585.71 204.54 590.53 217.82 602.32 231.1 618.29 244.38 634.66 257.66 647.56 270.94 653.95 284.22 652.31 297.5 643.04 310.78 628.32 324.05 611.63 337.33 596.92 350.61 587.66 363.89 586.05 377.17 592.46 390.45 605.37 403.73 621.74 417.01 637.7 430.29 649.48 443.57 654.28 456.85 650.99 470.13 640.36 483.41 624.93 496.68 608.33 509.96 594.48 523.24 586.67 536.52 586.73 549.8 594.66 563.08 608.57 576.36 625.18 589.64 611.32 598.4 597.46 611.34 583.6 625.95 569.74 639.42 555.87 649.12 542.01 653.19 528.15 650.83 514.29 642.5 500.43 629.82 486.57 615.24 472.7 601.58 458.84 591.48 444.98 586.9 431.12 588.73 417.26 596.6 403.4 609.01 389.53 623.54 375.67 637.38 361.81 647.86 347.95 652.95 334.09 651.66 320.23 644.24 306.36 632.13 292.5 617.67 278.64 603.66 264.78 592.81 250.92 587.23 237.06 587.98 223.19 594.93 209.33 606.73 195.47 621.1 181.61 635.25 176.44 621.27 172.11 607.28 169.65 593.29 169.63 579.31 172.06 565.32 176.37 551.33 181.53 537.35 186.33 523.36 189.63 509.37 190.66 495.39 189.16 481.4 185.5 467.41 180.54 453.43 175.45 439.44 171.43 425.45 169.44 411.47 169.94 397.48 172.82 383.49 177.39 369.51 182.58 355.52 187.16 341.53 190.05 327.55 190.55 313.56 188.57 299.57 184.55 285.59 179.46 271.6 174.5 257.61 170.83 243.63 169.33 229.64 170.35 215.65 173.65 201.67 178.45 187.68" stroke-dasharray="3 1" transform="rotate(24.24, 400, 400)" opacity="0.76"></path><path d="M185.22 193.08Q197.92 185.93 210.62 179.67 223.33 175.38 236.03 173.83 248.73 175.28 261.44 179.48 274.14 185.7 286.84 192.84 299.54 199.65 312.25 204.96 324.95 207.82 337.65 207.74 350.35 204.72 363.06 199.31 375.76 192.44 388.46 185.32 401.16 179.19 413.87 175.13 426.57 173.84 439.27 175.55 451.97 179.97 464.68 186.31 477.38 193.47 490.08 200.2 502.78 205.32 515.49 207.93 528.19 207.58 540.89 204.33 553.59 198.74 566.3 191.8 579.76 188.08 575.43 204.16 577.51 216.87 586.32 229.59 599.97 242.3 615.56 255.01 629.74 267.72 639.49 280.44 642.72 293.15 638.74 305.86 628.41 318.57 613.93 331.29 598.39 344 585.12 356.71 576.95 369.43 575.63 382.14 581.44 394.85 593.14 407.56 608.23 420.28 623.48 432.99 635.63 445.7 642.1 458.41 641.48 471.13 633.93 483.84 621.04 496.55 605.58 509.26 590.85 521.98 580 534.69 575.34 547.4 577.88 560.11 587.07 572.83 600.94 585.54 588.04 596.99 575.15 610.54 562.25 623.82 549.36 634.51 536.46 640.73 523.57 641.4 510.68 636.4 497.78 626.61 484.89 613.74 471.99 600.03 459.1 587.89 446.2 579.45 433.31 576.17 420.41 578.64 407.52 586.41 394.62 598.14 381.73 611.77 368.83 624.91 355.94 635.26 343.04 641.03 330.15 641.18 317.25 635.71 304.36 625.56 291.46 612.52 278.57 598.86 265.67 586.97 252.78 578.93 239.88 576.16 226.99 579.13 214.09 587.32 192.44 599.59 180.6 586.74 179.76 573.62 181.31 560.5 184.94 547.38 189.86 534.26 195.02 521.13 199.32 508.01 201.85 494.89 202.05 481.77 199.89 468.65 195.83 455.52 190.74 442.4 185.7 429.28 181.79 416.16 179.85 403.03 180.29 389.91 183.02 376.79 187.45 363.67 192.64 350.55 197.48 337.42 200.93 324.3 202.26 311.18 201.18 298.06 197.92 284.94 193.19 271.81 187.98 258.69 183.42 245.57 180.48 232.45 179.78 219.33 181.49 206.2 185.22 193.08" stroke-dasharray="7 7" transform="rotate(28.28, 400, 400)" opacity="0.40"></path><path d="M192.48 197.94Q204.32 191.61 216.16 186.92 228.01 184.59 239.85 185.01 251.69 188.09 263.53 193.36 275.37 199.99 287.21 206.93 299.05 213.1 310.9 217.52 322.74 219.5 334.58 218.73 346.42 215.32 358.26 209.82 370.1 203.09 381.94 196.19 393.79 190.2 405.63 186.06 417.47 184.43 429.31 185.56 441.15 189.28 452.99 195 464.83 201.81 476.67 208.66 488.52 214.45 500.36 218.29 512.2 219.57 524.04 218.08 535.88 214.06 547.72 208.15 562.53 203.97 565.84 218.85 572.35 231.03 583.8 243.2 597.97 255.38 612.15 267.56 623.61 279.74 630.14 291.91 630.5 304.09 624.61 316.27 613.61 328.44 599.6 340.62 585.29 352.8 573.42 364.98 566.27 377.15 565.22 389.33 570.46 401.51 581 413.68 594.81 425.86 609.22 438.04 621.48 450.21 629.23 462.39 630.97 474.57 626.38 486.75 616.33 498.92 602.76 511.1 588.27 523.28 575.65 535.45 567.33 547.63 564.9 559.81 568.83 571.98 578.36 584.16 566.38 596.65 554.4 609.35 542.42 620.26 530.44 627.67 518.46 630.42 506.48 628.06 494.5 620.98 482.51 610.29 470.53 597.66 458.55 585.08 446.57 574.54 434.59 567.68 422.61 565.59 410.63 568.6 398.65 576.23 386.67 587.28 374.69 600.02 362.7 612.43 350.72 622.58 338.74 628.87 326.76 630.29 314.78 626.64 302.8 618.49 290.82 607.11 278.84 594.3 266.86 582.07 254.88 572.34 242.89 566.65 230.91 565.89 218.93 570.17 199.26 578.54 190.15 565.97 191.02 553.71 194 541.44 198.52 529.17 203.7 516.9 208.55 504.63 212.15 492.37 213.79 480.1 213.17 467.83 210.4 455.56 206.01 443.3 200.85 431.03 195.92 418.76 192.15 406.49 190.27 394.22 190.64 381.96 193.2 369.69 197.45 357.42 202.57 345.15 207.58 332.88 211.52 320.62 213.62 308.35 213.5 296.08 211.16 283.81 207.06 271.55 201.99 259.28 196.92 247.01 192.82 234.74 190.49 222.47 190.37 210.21 192.48 197.94" stroke-dasharray="4 4" transform="rotate(32.32, 400, 400)" opacity="0.93"></path><path d="M200.92 203.02Q212 198.21 223.08 195.48 234.16 195.2 245.24 197.43 256.32 201.84 267.39 207.82 278.47 214.53 289.55 221.02 300.63 226.38 311.71 229.86 322.79 230.98 333.86 229.57 344.94 225.83 356.02 220.28 367.1 213.72 378.18 207.05 389.26 201.22 400.33 197.04 411.41 195.1 422.49 195.68 433.57 198.69 444.65 203.71 455.73 210.03 466.8 216.77 477.88 222.98 488.96 227.79 500.04 230.52 511.12 230.78 522.2 228.55 533.27 224.14 549.63 220.63 559.91 234.75 569.56 246.4 582.2 258.05 595.66 269.7 607.64 281.35 616.07 293 619.51 304.65 617.36 316.3 610.01 327.95 598.7 339.6 585.38 351.25 572.34 362.9 561.81 374.55 555.61 386.2 554.8 397.85 559.52 409.5 568.95 421.15 581.49 432.8 594.97 444.45 607.08 456.1 615.74 467.75 619.46 479.4 617.61 491.05 610.51 502.7 599.36 514.35 586.09 526 572.98 537.65 562.27 549.3 555.81 560.95 554.7 572.6 559.14 584.25 547.99 596.18 536.84 606.83 525.69 614.69 514.54 618.65 503.39 618.18 492.24 613.32 481.09 604.76 469.94 593.71 458.79 581.72 447.64 570.46 436.49 561.53 425.34 556.18 414.19 555.15 403.04 558.6 391.89 566.03 380.74 576.41 369.59 588.28 358.44 599.97 347.29 609.83 336.14 616.49 324.99 619 313.84 617.02 302.69 610.82 291.54 601.27 280.39 589.72 269.24 577.79 258.09 567.15 246.94 559.29 235.79 555.33 224.64 555.82 207.07 559.24 201.07 546.35 203.54 534.91 207.64 523.47 212.65 512.02 217.72 500.58 221.99 489.13 224.7 477.69 225.41 466.24 223.99 454.8 220.67 443.35 216.04 431.91 210.89 420.47 206.1 409.02 202.49 397.58 200.68 386.13 200.99 374.69 203.36 363.24 207.39 351.8 212.38 340.35 217.47 328.91 221.8 317.47 224.61 306.02 225.43 294.58 224.11 283.13 220.89 271.69 216.31 260.24 211.16 248.8 206.33 237.35 202.64 225.91 200.73 214.47 200.92 203.02" stroke-dasharray="10 5" transform="rotate(36.36, 400, 400)" opacity="0.49"></path><path d="M211.09 209.11Q221.51 206.28 231.92 205.66 242.34 207.32 252.75 211.06 263.17 216.41 273.58 222.71 284 229.17 294.41 234.98 304.83 239.42 315.24 241.95 325.66 242.23 336.07 240.24 346.49 236.23 356.9 230.7 367.32 224.33 377.73 217.91 388.15 212.26 398.56 208.07 408.98 205.86 419.39 205.91 429.81 208.22 440.22 212.49 450.64 218.19 461.05 224.62 471.47 230.97 481.88 236.45 492.3 240.38 502.71 242.27 513.13 241.88 523.55 239.26 533.96 234.74 544.38 228.88 548.56 239.99 556.93 251.1 568.21 262.21 580.67 273.32 592.41 284.43 601.66 295.54 607 306.65 607.61 317.76 603.41 328.87 595.02 339.98 583.75 351.09 571.28 362.2 559.54 373.31 550.31 384.42 544.98 395.53 544.39 406.64 548.61 417.75 557 428.86 568.28 439.97 580.75 451.08 592.48 462.19 601.71 473.29 607.02 484.4 607.6 495.51 603.36 506.62 594.96 517.73 583.67 528.84 571.2 539.95 559.47 551.06 550.26 562.17 544.96 573.28 544.4 584.39 533.98 594.45 523.57 602.21 513.15 606.71 502.74 607.38 492.32 604.14 481.91 597.39 471.49 587.97 461.08 577.07 450.66 566.03 440.24 556.23 429.83 548.9 419.41 544.94 409 544.85 398.58 548.64 388.17 555.84 377.75 565.55 367.34 576.56 356.92 587.51 346.5 597.01 336.09 603.9 325.67 607.31 315.26 606.82 304.84 602.49 294.43 594.86 284.01 584.88 273.6 573.79 263.18 562.97 252.77 553.78 242.35 547.36 231.93 544.5 216.43 542.66 213.49 529.09 217.25 518.43 222.04 507.76 227.13 497.1 231.73 486.43 235.16 475.76 236.89 465.1 236.65 454.43 234.49 443.76 230.72 433.1 225.93 422.43 220.85 411.77 216.24 401.1 212.82 390.43 211.1 379.77 211.34 369.1 213.51 358.43 217.28 347.77 222.07 337.1 227.16 326.44 231.76 315.77 235.18 305.1 236.89 294.44 236.64 283.77 234.47 273.11 230.69 262.44 225.9 251.77 220.82 241.11 216.22 230.44 212.8 219.77 211.09 209.11" stroke-dasharray="10 5" transform="rotate(40.400000000000006, 400, 400)" opacity="0.90"></path><path d="M223.3 216.88Q233.13 216.22 242.97 217.61 252.81 220.91 262.64 225.75 272.48 231.61 282.32 237.84 292.15 243.76 301.99 248.71 311.83 252.16 321.66 253.73 331.5 253.25 341.34 250.76 351.17 246.55 361.01 241.06 370.85 234.92 380.68 228.78 390.52 223.32 400.36 219.14 410.19 216.7 420.03 216.27 429.87 217.89 439.7 221.39 449.54 226.37 459.38 232.31 469.21 238.53 479.05 244.37 488.89 249.18 498.72 252.44 508.56 253.78 518.4 253.07 528.23 250.37 538.07 245.98 545.67 256.52 555.87 267.06 567.28 277.6 578.39 288.14 587.71 298.67 593.97 309.21 596.35 319.75 594.53 330.29 588.74 340.83 579.77 351.37 568.82 361.91 557.35 372.44 546.91 382.98 538.9 393.52 534.38 404.06 533.97 414.6 537.72 425.14 545.13 435.67 555.21 446.21 566.59 456.75 577.76 467.29 587.22 477.83 593.7 488.37 596.33 498.9 594.75 509.44 589.19 519.98 580.38 530.52 569.5 541.06 558.02 551.6 547.48 562.13 539.29 572.67 534.54 583.21 524.76 590.48 514.99 594.95 505.22 596.14 495.44 593.92 485.67 588.52 475.89 580.54 466.12 570.86 456.34 560.54 446.57 550.7 436.8 542.43 427.02 536.64 417.25 533.95 407.47 534.67 397.7 538.71 387.92 545.64 378.15 554.69 368.38 564.86 358.6 575.06 348.83 584.14 339.05 591.13 329.28 595.26 319.5 596.06 309.73 593.46 299.95 587.74 290.18 579.52 280.41 569.71 270.63 559.39 260.86 549.68 251.08 541.64 241.31 536.17 227.68 529.44 227.38 515.09 231.97 505.14 236.95 495.2 241.68 485.26 245.51 475.32 247.93 465.38 248.61 455.44 247.47 445.5 244.65 435.56 240.54 425.62 235.69 415.68 230.74 405.74 226.36 395.8 223.14 385.86 221.51 375.92 221.69 365.98 223.65 356.04 227.14 346.1 231.67 336.16 236.66 326.22 241.42 316.28 245.31 306.34 247.83 296.4 248.62 286.46 247.59 276.52 244.86 266.58 240.82 256.64 235.99 246.7 231.03 236.76 226.6 226.82 223.3 216.88" stroke-dasharray="1 4" transform="rotate(44.44, 400, 400)" opacity="0.75"></path><path d="M237.51 226.83Q246.83 228.23 256.14 231.32 265.46 235.82 274.78 241.29 284.09 247.21 293.41 253.01 302.73 258.14 312.04 262.12 321.36 264.55 330.68 265.2 339.99 264.02 349.31 261.11 358.63 256.76 367.94 251.38 377.26 245.49 386.58 239.64 395.89 234.4 405.21 230.27 414.52 227.64 423.84 226.77 433.16 227.74 442.47 230.45 451.79 234.65 461.11 239.93 470.42 245.8 479.74 251.68 489.06 257.02 498.37 261.3 507.69 264.12 517.01 265.21 526.32 264.46 535.64 261.95 545.04 271.87 555.49 281.8 565.76 291.72 574.66 301.64 581.13 311.57 584.44 321.49 584.18 331.42 580.39 341.34 573.51 351.27 564.35 361.19 553.98 371.12 543.61 381.04 534.45 390.96 527.58 400.89 523.8 410.81 523.56 420.74 526.87 430.66 533.36 440.59 542.27 450.51 552.54 460.44 562.99 470.36 572.38 480.28 579.62 490.21 583.87 500.13 584.62 510.06 581.78 519.98 575.7 529.91 567.07 539.83 556.92 549.76 546.42 559.68 536.81 569.6 529.21 579.53 520 583.56 510.79 584.76 501.59 583.02 492.38 578.5 483.17 571.64 473.96 563.09 464.75 553.68 455.54 544.29 446.33 535.83 437.13 529.11 427.92 524.77 418.71 523.22 409.5 524.62 400.29 528.82 391.08 535.44 381.88 543.82 372.67 553.18 363.46 562.62 354.25 571.23 345.04 578.2 335.83 582.85 326.63 584.74 317.42 583.69 308.21 579.8 299 573.44 289.79 565.23 280.58 555.94 271.38 546.46 262.17 537.7 252.96 530.51 240.9 519.81 242.49 504.79 247.35 495.53 252.04 486.26 256.02 477 258.84 467.73 260.15 458.47 259.8 449.2 257.84 439.93 254.49 430.67 250.15 421.4 245.32 412.14 240.57 402.87 236.46 393.61 233.46 384.34 231.93 375.08 232.04 365.81 233.79 356.55 236.96 347.28 241.19 338.02 245.99 328.75 250.78 319.49 255.01 310.22 258.19 300.96 259.94 291.69 260.06 282.43 258.54 273.16 255.54 263.89 251.43 254.63 246.68 245.36 241.86 236.1 237.51 226.83" stroke-dasharray="9 9" transform="rotate(48.48, 400, 400)" opacity="0.85"></path><path d="M253.38 239.2Q262.2 242.29 271.03 246.6 279.85 251.77 288.67 257.36 297.49 262.93 306.31 268.01 315.13 272.18 323.95 275.09 332.77 276.51 341.59 276.32 350.41 274.54 359.23 271.3 368.05 266.89 376.87 261.66 385.69 256.04 394.51 250.5 403.33 245.5 412.15 241.45 420.97 238.68 429.79 237.42 438.61 237.78 447.43 239.72 456.25 243.09 465.07 247.61 473.89 252.9 482.72 258.53 491.54 264.03 500.36 268.96 509.18 272.89 518 275.51 526.82 276.61 535.64 276.08 545.2 285.35 554.53 294.61 562.7 303.87 568.88 313.13 572.45 322.4 573.04 331.66 570.59 340.92 565.36 350.19 557.86 359.45 548.87 368.71 539.28 377.98 530.07 387.24 522.16 396.5 516.36 405.77 513.25 415.03 513.14 424.29 516.05 433.56 521.68 442.82 529.47 452.08 538.62 461.35 548.21 470.61 557.28 479.87 564.9 489.14 570.31 498.4 572.96 507.66 572.59 516.93 569.22 526.19 563.2 535.45 555.15 544.72 545.86 553.98 536.29 563.24 527.39 572.51 518.7 573.32 510.01 571.63 501.32 567.57 492.63 561.49 483.94 553.88 475.25 545.37 466.57 536.67 457.88 528.48 449.19 521.5 440.5 516.29 423.12 513.98 405.74 518.96 397.05 525.23 388.36 532.96 379.67 541.52 370.98 550.21 362.3 558.29 353.61 565.12 344.92 570.12 336.23 572.88 327.54 573.17 318.85 570.97 310.16 566.47 301.47 560.02 292.78 552.17 284.09 543.56 275.4 534.91 266.72 526.92 255.86 513.55 258.4 498.21 262.96 489.58 266.91 480.94 270.78 463.67 270.4 446.41 267.75 437.77 264 429.14 259.56 420.51 254.85 411.87 250.36 403.24 246.54 394.6 243.08 377.34 243.92 360.07 246.77 351.44 250.65 342.8 255.17 334.17 259.88 325.53 264.29 316.9 267.97 308.27 270.99 291 269.7 273.73 266.67 265.1 262.66 256.46 258.08 247.83 253.38 239.2" stroke-dasharray="10 11" transform="rotate(52.52, 400, 400)" opacity="0.90"></path><path d="M270.25 253.9Q286.88 263.09 303.51 273.63 320.13 282.62 336.76 287.56 353.39 287.08 370.02 281.33 386.65 271.89 403.28 261.37 419.91 252.68 436.54 248.23 453.17 249.25 469.8 255.45 486.43 265.13 503.06 275.6 519.69 283.96 536.32 287.91 551.86 305.02 560.7 322.14 559.86 339.25 549.62 356.36 533.43 373.48 516.76 390.59 505.23 407.71 502.73 424.82 510.1 441.94 524.85 459.05 542.02 476.17 555.81 493.28 561.56 510.4 557.34 527.51 544.57 544.62 527.56 561.74 511.19 555.84 494.83 543.35 478.46 527.71 462.09 513.26 445.72 503.99 429.36 502.47 412.99 509.12 396.62 522.1 380.26 537.81 363.89 551.92 347.52 560.51 331.15 561.21 314.79 553.83 298.42 540.41 282.05 524.66 265.69 510.94 274.54 494.87 281.19 478.81 283.38 462.74 280.39 446.68 273.21 430.61 264.28 414.55 256.6 398.48 252.76 382.42 254.06 366.35 260.06 350.29 268.74 334.22 277.17 318.16 282.5 302.09 282.94 286.03 278.34 269.96 270.25 253.9" stroke-dasharray="6 9" transform="rotate(56.56, 400, 400)" opacity="0.67"></path><path d="M287.21 270.56Q302.76 280.29 318.3 289.71 333.84 296.63 349.38 299.44 364.93 297.47 380.47 291.2 396.01 282.07 411.55 272.23 427.1 263.97 442.64 259.21 458.18 259.07 473.72 263.58 489.27 271.69 504.81 281.5 520.35 290.73 535.89 297.22 546.57 312.85 549.96 328.48 545.11 344.11 533.38 359.74 518.13 375.37 503.7 391 494.19 406.63 492.31 422.26 498.6 437.89 511.27 453.52 526.71 469.15 540.52 484.78 548.77 500.41 549.11 516.04 541.45 531.67 527.96 547.3 512.64 537.93 497.32 524.61 482 510.45 466.68 498.74 451.36 492.23 436.04 492.44 420.72 499.3 405.4 511.23 390.08 525.44 374.76 538.61 359.44 547.67 344.12 550.5 328.8 546.45 313.48 536.46 298.15 522.86 282.83 508.82 290.27 493.93 294.5 479.04 294.31 464.15 289.76 449.26 282.15 434.37 273.63 419.47 266.64 404.58 263.17 389.69 264.21 374.8 269.46 359.91 277.42 345.02 285.83 330.13 292.29 315.24 294.97 300.34 293.1 285.45 287.21 270.56" stroke-dasharray="7 7" transform="rotate(60.599999999999994, 400, 400)" opacity="0.16"></path><path d="M303.32 288.54Q317.66 297.61 332 305.22 346.35 309.87 360.69 310.68 375.03 307.49 389.38 300.91 403.72 292.22 418.06 283.1 432.41 275.31 446.75 270.36 461.09 269.22 475.44 272.09 489.78 278.43 504.12 287.01 518.47 296.17 532.81 304.13 538.1 318.23 536.75 332.33 529.07 346.42 516.89 360.52 503.07 374.62 490.9 388.72 483.23 402.82 481.9 416.92 487.2 431.02 497.89 445.12 511.44 459.22 524.65 473.32 534.4 487.41 538.38 501.51 535.65 515.61 526.85 529.71 512.67 518.6 498.48 505.83 484.29 493.86 470.1 485.02 455.91 481.01 441.72 482.6 427.53 489.5 413.35 500.37 399.16 513.1 384.97 525.22 370.78 534.4 356.59 538.86 342.4 537.73 328.22 531.23 314.03 520.62 299.84 507.96 304.97 494.25 306.56 480.53 304.24 466.82 298.55 453.1 290.84 439.39 282.93 425.68 276.69 411.96 273.59 398.25 274.37 384.53 278.84 370.82 285.95 357.11 294.02 343.39 301.13 329.68 305.61 315.96 306.4 302.25 303.32 288.54" stroke-dasharray="11 7" transform="rotate(64.64, 400, 400)" opacity="0.80"></path><path d="M317.66 306.98Q330.68 314.45 343.7 319.8 356.72 322.2 369.74 321.26 382.76 317.14 395.78 310.47 408.8 302.32 421.82 293.96 434.84 286.7 447.86 281.69 460.88 279.72 473.9 281.09 486.92 285.59 499.94 292.52 512.96 300.77 525.98 309.06 526.28 321.62 521.34 334.17 512.1 346.72 500.34 359.27 488.33 371.82 478.36 384.37 472.36 396.92 471.48 409.47 475.89 422.02 484.73 434.57 496.32 447.12 508.42 459.68 518.71 472.23 525.21 484.78 518.27 498.01 496.93 487.56 483.99 478.22 471.04 472.15 458.1 470.3 445.15 472.96 432.21 479.72 419.26 489.5 406.32 500.78 393.37 511.78 380.43 520.77 367.48 526.33 354.54 527.6 341.59 524.36 328.65 517.14 315.71 507.06 318.09 494.56 317.18 482.05 313.17 469.55 306.81 457.04 299.34 444.54 292.19 432.03 286.73 419.53 284.01 407.02 284.55 394.52 288.26 382.01 294.41 369.51 301.83 357 309.09 344.49 314.79 331.99 317.84 319.48 317.66 306.98" stroke-dasharray="7 9" transform="rotate(68.68, 400, 400)" opacity="0.70"></path><path d="M329.57 324.95Q341.16 330.19 352.74 333.17 364.33 333.5 375.91 331.16 387.5 326.43 399.08 319.9 410.67 312.39 422.25 304.82 433.84 298.15 445.42 293.21 457.01 290.61 468.59 290.67 480.18 293.39 491.76 298.42 503.35 305.15 514.93 312.73 511.35 323.75 504.21 334.76 494.6 345.77 483.98 356.79 473.98 367.8 466.11 378.82 461.57 389.83 461.06 400.84 464.66 411.86 471.81 422.87 481.43 433.89 492.04 444.9 502.04 455.91 509.9 466.93 508.88 478.51 491.75 470.29 480.17 463.73 468.58 460.18 457 460.1 445.41 463.5 433.83 469.94 422.24 478.64 410.66 488.5 399.07 498.3 387.49 506.82 375.9 512.99 364.32 516.04 352.74 515.6 341.15 511.73 329.57 504.89 329.24 493.64 326.29 482.4 321.16 471.15 314.64 459.9 307.71 448.66 301.43 437.41 296.77 426.17 294.42 414.92 294.75 403.67 297.71 392.43 302.85 381.18 309.38 369.93 316.3 358.69 322.58 347.44 327.24 336.2 329.57 324.95" stroke-dasharray="5 9" transform="rotate(72.72, 400, 400)" opacity="0.71"></path><path d="M338.74 341.54Q348.81 344.33 358.88 345.09 368.95 343.73 379.02 340.39 389.09 335.38 399.15 329.19 409.22 322.41 419.29 315.69 429.36 309.66 439.43 304.91 449.5 301.89 459.57 300.88 469.64 301.99 479.7 305.11 491.83 317.74 485.96 335.04 476.98 344.55 468 354.07 460.08 363.58 454.13 373.09 450.86 382.6 450.65 392.11 453.52 401.62 459.14 411.13 466.84 420.64 475.74 430.15 484.78 439.67 492.91 449.18 484.21 455.06 462.34 449.11 452.22 450.37 442.09 454.18 431.96 460.18 421.83 467.78 411.71 476.26 401.58 484.81 391.45 492.62 381.33 498.93 371.2 503.14 361.07 504.85 350.94 503.9 340.82 500.38 338.28 490.45 333.96 480.52 328.36 470.6 322.13 460.67 316 450.74 310.69 440.81 306.81 430.89 304.84 420.96 304.98 411.03 307.24 401.1 311.33 391.18 316.8 381.25 322.98 371.32 329.17 361.39 334.64 351.46 338.74 341.54" stroke-dasharray="8 6" transform="rotate(76.76, 400, 400)" opacity="0.22"></path><path d="M345.28 355.97Q362.31 355.44 379.34 348.98 396.36 338.37 413.39 326.55 430.42 316.79 447.45 311.79 464.48 312.94 481.5 319.91 467.26 336.02 452.59 352.13 442.44 368.25 440.23 384.36 446.72 400.47 459.71 416.58 472.28 436.5 452.52 438.91 435.31 445.01 418.1 456.91 400.88 471.33 383.67 484.27 366.46 492.15 349.24 492.8 340.42 475.7 329.42 458.59 319.97 441.49 315.25 424.38 316.85 407.28 324.24 390.18 334.91 373.07 345.28 355.97" stroke-dasharray="8 2" transform="rotate(80.80000000000001, 400, 400)" opacity="0.68"></path><path d="M349.73 367.73Q363.66 364.22 377.59 356.99 391.52 347.44 405.45 337.41 419.38 328.86 433.31 323.42 448.02 330.4 437.88 351.94 431.02 365.25 429.82 378.56 434.57 391.86 444.15 405.17 455.14 423.27 439.86 429.54 425.73 435.95 411.6 446.05 397.47 457.88 383.34 469.15 369.21 477.68 355.08 481.82 345.99 467.56 336.67 453.29 329.31 439.03 325.67 424.77 326.59 410.51 331.86 396.25 340.23 381.99 349.73 367.73" stroke-dasharray="1 3" transform="rotate(84.84, 400, 400)" opacity="0.38"></path><path d="M353.03 376.62Q363.94 371.53 374.85 364.5 385.77 356.41 396.68 348.28 407.59 341.1 418.5 335.78 430.31 338.31 424.01 354.23 419.87 364.83 419.4 375.42 422.69 386.02 429.21 396.61 437.3 412.47 425.51 420.92 414.43 427 403.34 435.19 392.25 444.47 381.16 453.7 370.08 461.72 358.99 467.53 351.14 456.17 344.03 444.8 338.74 433.44 336.08 422.07 336.46 410.71 339.81 399.34 345.63 387.98 353.03 376.62" stroke-dasharray="1 11" transform="rotate(88.88, 400, 400)" opacity="0.48"></path><path d="M356.33 382.8Q372.37 371.61 388.41 359.14 407.75 354.15 408.99 375.35 415.03 391.24 427.14 407.13 410.85 412.96 394.57 424.32 378.28 438.09 361.99 450.45 351.66 433.53 346.5 416.62 348.25 399.71 356.33 382.8" stroke-dasharray="0 1" transform="rotate(92.92, 400, 400)" opacity="0.55"></path><path d="M360.86 386.8Q371.39 378.43 381.91 370 395.73 365.14 398.57 378.35 401.7 389 407.92 399.64 397.27 405.52 386.62 413.46 367.85 421.36 356.91 409.1 357.31 397.95 360.86 386.8" stroke-dasharray="5 5" transform="rotate(96.96, 400, 400)" opacity="0.88"></path></g></svg>