<svg xmlns="http://www.w3.org/2000/svg" version="1.1" xmlns:xlink="http://www.w3.org/1999/xlink" xmlns:svgjs="http://svgjs.dev/svgjs" viewBox="0 0 1422 800"><defs><linearGradient x1="50%" y1="0%" x2="50%" y2="100%" id="oooscillate-grad"><stop stop-color="hsl(265, 55%, 30%)" stop-opacity="1" offset="0%"></stop><stop stop-color="hsl(265, 55%, 60%)" stop-opacity="1" offset="100%"></stop></linearGradient></defs><g stroke-width="2" stroke="url(#oooscillate-grad)" fill="none" stroke-linecap="round"><path d="M 0 -1550 Q 355.5 260 711 400 Q 1066.5 540 1422 -1550" stroke-dasharray="51 5" opacity="0.05"></path><path d="M 0 -1500 Q 355.5 260 711 400 Q 1066.5 540 1422 -1500" stroke-dasharray="24 45" opacity="0.08"></path><path d="M 0 -1450 Q 355.5 260 711 400 Q 1066.5 540 1422 -1450" stroke-dasharray="24 26" opacity="0.11"></path><path d="M 0 -1400 Q 355.5 260 711 400 Q 1066.5 540 1422 -1400" stroke-dasharray="29 40" opacity="0.15"></path><path d="M 0 -1350 Q 355.5 260 711 400 Q 1066.5 540 1422 -1350" stroke-dasharray="34 33" opacity="0.18"></path><path d="M 0 -1300 Q 355.5 260 711 400 Q 1066.5 540 1422 -1300" stroke-dasharray="4 31" opacity="0.21"></path><path d="M 0 -1250 Q 355.5 260 711 400 Q 1066.5 540 1422 -1250" stroke-dasharray="10 41" opacity="0.24"></path><path d="M 0 -1200 Q 355.5 260 711 400 Q 1066.5 540 1422 -1200" stroke-dasharray="24 52" opacity="0.27"></path><path d="M 0 -1150 Q 355.5 260 711 400 Q 1066.5 540 1422 -1150" stroke-dasharray="17 23" opacity="0.30"></path><path d="M 0 -1100 Q 355.5 260 711 400 Q 1066.5 540 1422 -1100" stroke-dasharray="23 27" opacity="0.33"></path><path d="M 0 -1050 Q 355.5 260 711 400 Q 1066.5 540 1422 -1050" stroke-dasharray="30 17" opacity="0.37"></path><path d="M 0 -1000 Q 355.5 260 711 400 Q 1066.5 540 1422 -1000" stroke-dasharray="21 8" opacity="0.40"></path><path d="M 0 -950 Q 355.5 260 711 400 Q 1066.5 540 1422 -950" stroke-dasharray="37 4" opacity="0.43"></path><path d="M 0 -900 Q 355.5 260 711 400 Q 1066.5 540 1422 -900" stroke-dasharray="45 11" opacity="0.46"></path><path d="M 0 -850 Q 355.5 260 711 400 Q 1066.5 540 1422 -850" stroke-dasharray="43 46" opacity="0.49"></path><path d="M 0 -800 Q 355.5 260 711 400 Q 1066.5 540 1422 -800" stroke-dasharray="12 18" opacity="0.53"></path><path d="M 0 -750 Q 355.5 260 711 400 Q 1066.5 540 1422 -750" stroke-dasharray="43 4" opacity="0.56"></path><path d="M 0 -700 Q 355.5 260 711 400 Q 1066.5 540 1422 -700" stroke-dasharray="12 20" opacity="0.59"></path><path d="M 0 -650 Q 355.5 260 711 400 Q 1066.5 540 1422 -650" stroke-dasharray="44 36" opacity="0.62"></path><path d="M 0 -600 Q 355.5 260 711 400 Q 1066.5 540 1422 -600" stroke-dasharray="23 44" opacity="0.65"></path><path d="M 0 -550 Q 355.5 260 711 400 Q 1066.5 540 1422 -550" stroke-dasharray="54 19" opacity="0.68"></path><path d="M 0 -500 Q 355.5 260 711 400 Q 1066.5 540 1422 -500" stroke-dasharray="44 33" opacity="0.71"></path><path d="M 0 -450 Q 355.5 260 711 400 Q 1066.5 540 1422 -450" stroke-dasharray="19 48" opacity="0.75"></path><path d="M 0 -400 Q 355.5 260 711 400 Q 1066.5 540 1422 -400" stroke-dasharray="48 21" opacity="0.78"></path><path d="M 0 -350 Q 355.5 260 711 400 Q 1066.5 540 1422 -350" stroke-dasharray="37 35" opacity="0.81"></path><path d="M 0 -300 Q 355.5 260 711 400 Q 1066.5 540 1422 -300" stroke-dasharray="3 40" opacity="0.84"></path><path d="M 0 -250 Q 355.5 260 711 400 Q 1066.5 540 1422 -250" stroke-dasharray="1 36" opacity="0.87"></path><path d="M 0 -200 Q 355.5 260 711 400 Q 1066.5 540 1422 -200" stroke-dasharray="46 33" opacity="0.91"></path><path d="M 0 -150 Q 355.5 260 711 400 Q 1066.5 540 1422 -150" stroke-dasharray="21 12" opacity="0.94"></path><path d="M 0 -100 Q 355.5 260 711 400 Q 1066.5 540 1422 -100" stroke-dasharray="52 45" opacity="0.97"></path></g></svg>