<svg width="42" height="41" viewBox="0 0 42 41" fill="none" xmlns="http://www.w3.org/2000/svg">
<path d="M24.0084 29.4696C21.8966 30.664 19.456 31.3563 16.8509 31.3563C8.83655 31.3563 2.34545 24.8652 2.34545 16.8509C2.34545 8.8452 12.9909 17.5 21.5 14.0381C21.5 14.0381 26.5 12.6187 21.5 5C27.792 5.727 29.8244 7.88452 30.9928 14.0381L37.0079 11.3032L33.1565 12.6187C31.2785 5.35732 24.6921 0 16.8509 0C16.8394 0 16.8307 0 16.8249 0C16.8134 0 16.8047 0 16.799 0C11.883 0 7.46909 2.12043 4.4053 5.48714C4.38799 5.50445 4.37068 5.52465 4.35337 5.54773C4.21489 5.70351 4.07641 5.86219 3.93793 6.02374C3.89754 6.0699 3.85716 6.11606 3.81677 6.16222C3.77638 6.21992 3.73599 6.27473 3.6956 6.32666C1.38477 9.20871 0 12.8697 0 16.8509C0 21.4639 1.85213 25.6442 4.85534 28.6907L5.10633 28.9503C5.1121 28.9561 5.11787 28.959 5.12364 28.959C5.14095 28.9763 5.15826 28.9965 5.17557 29.0195C5.25635 29.0946 5.35444 29.1869 5.46983 29.2965C5.591 29.4004 5.72082 29.5129 5.87661 29.6427C5.95162 29.7062 6.02951 29.7725 6.11029 29.8418C6.20261 29.911 6.29781 29.9802 6.3959 30.0495C6.48822 30.1245 6.5863 30.2024 6.69016 30.2831C6.79402 30.361 6.91519 30.4303 7.0277 30.5082C7.1431 30.5889 7.26138 30.6726 7.38255 30.7592C7.50948 30.8342 7.64219 30.9121 7.78067 30.9928C8.04031 31.1659 8.34323 31.3131 8.64615 31.4775C9.26064 31.7891 9.94436 32.1093 10.6887 32.3776C11.0608 32.5161 11.459 32.6286 11.8571 32.7584C12.2639 32.8623 12.6706 32.9834 13.0947 33.07C13.9515 33.2431 14.843 33.3816 15.7517 33.4422C15.9768 33.4595 16.2104 33.4595 16.4441 33.4768L16.7903 33.4854C16.8942 33.4854 17.0153 33.4854 17.1365 33.4854C17.3529 33.4854 17.6039 33.4681 17.8289 33.4595L18.1664 33.4248L18.5126 33.3816C20.3474 33.1392 22.113 32.4209 23.5584 31.4342C23.9132 31.1919 24.2594 30.9323 24.5969 30.6726C24.9431 30.4216 25.272 30.1706 25.5922 29.9283C26.2414 29.4436 26.8558 28.9849 27.4184 28.5608C29.4696 27.0289 30.8976 25.9557 31.1486 25.774C30.9063 25.9644 29.5042 27.0722 27.4963 28.656C26.9424 29.0974 26.3452 29.5735 25.7048 30.0754C25.3874 30.3235 25.0643 30.5803 24.7354 30.8457C24.3979 31.1054 24.0603 31.3823 23.6968 31.642C22.2515 32.6805 20.4686 33.4681 18.5732 33.771L18.2184 33.823L17.8549 33.8662C17.6125 33.8922 17.3961 33.9095 17.1452 33.9182C17.024 33.9182 16.9115 33.9268 16.7903 33.9268L16.4355 33.9182C16.1931 33.9182 15.9595 33.9182 15.7258 33.9009C14.7911 33.8749 13.8736 33.7537 12.9909 33.5893C12.5495 33.5114 12.1254 33.4075 11.7013 33.3037C11.2859 33.1912 10.8791 33.0873 10.4896 32.9402C9.71069 32.6892 8.99234 32.3776 8.34323 32.066C8.22206 32.0083 8.10378 31.9478 7.98838 31.8843L15.5354 39.5871C16.2537 40.3227 17.4394 40.3227 18.1664 39.5871L28.8464 28.6907L29.1667 28.3531L33.5979 23.844C33.5979 23.844 24.1729 29.3744 24.0171 29.4609L24.0084 29.4696Z" fill="#873cb2"/>
<path d="M31.1487 25.774L22.8141 33.1738C22.8141 33.1738 19.8368 35.6837 16.799 35.6837C16.7932 35.6837 16.7903 35.6837 16.7903 35.6837C13.363 35.727 10.7147 34.6711 10.7147 34.6711L7.9884 31.8843C8.1038 31.9477 8.22208 32.0083 8.34325 32.066C8.99236 32.3776 9.71071 32.6892 10.4896 32.9402C10.8791 33.0873 11.2859 33.1912 11.7013 33.3037C12.1254 33.4075 12.5495 33.5114 12.9909 33.5893C13.8737 33.7537 14.7911 33.8749 15.7258 33.9008C15.9595 33.9182 16.1932 33.9182 16.4355 33.9182L16.7903 33.9268C16.9115 33.9268 17.024 33.9182 17.1452 33.9182C17.3962 33.9095 17.6125 33.8922 17.8549 33.8662L18.2184 33.823L18.5732 33.771C20.4686 33.4681 22.2515 32.6805 23.6969 31.6419C24.0604 31.3823 24.3979 31.1053 24.7354 30.8457C25.0643 30.5803 25.3874 30.3235 25.7048 30.0754C26.3452 29.5734 26.9424 29.0974 27.4963 28.656C29.3138 27.2193 30.638 26.1721 31.0448 25.8519L31.1227 25.7913L31.1487 25.774Z" fill="#873cb2"/>
<path d="M41.9477 14.7744C41.7274 15.5454 40.626 16.5504 37.5696 17.7482C36.5508 18.1612 34.1002 19.0699 31.1264 20.1575L24.7933 26.0087L23.9397 26.3667L25.5643 22.5393L28.304 21.1901C27.0512 21.6582 14.3162 26.2841 12.6503 26.8899C12.3336 27 12.0032 27.0275 11.6728 26.9725L4.99553 25.7472C4.91292 25.7196 4.85786 25.637 4.87162 25.5544L4.88539 25.4718L4.91293 25.2928C4.92669 25.2102 4.99553 25.1551 5.07814 25.1551L7.85918 25.224L4.81655 22.2777C4.76148 22.2089 4.77525 22.1125 4.85785 22.085L6.20707 21.6169C6.34475 21.5618 6.4962 21.5618 6.63387 21.6031C7.39109 21.8372 9.99316 22.6494 12.0445 23.3654C12.3749 23.4067 15.0321 22.1538 18.4602 20.5017L19.9196 20.7771L10.1171 17.4866C10.062 17.4591 10.062 17.3765 10.1171 17.3489L11.2322 16.8808C11.2965 16.8533 11.3607 16.8395 11.425 16.8395L24.4629 17.6105C28.483 15.6831 32.4618 13.907 34.5407 13.1085C35.9037 12.5854 36.7986 12.6404 38.0928 12.8469C39.2768 12.8469 40.6535 13.0397 41.2455 13.3013C41.7136 13.494 42.1542 14.086 41.9477 14.7744Z" fill="url(#paint0_linear_74_39)"/>
<path style="mix-blend-mode:screen" d="M41.9477 14.7744C41.7274 15.5454 40.626 16.5504 37.5696 17.7482C36.5508 18.1612 34.1002 19.0699 31.1264 20.1575L24.7933 26.0087L23.9397 26.3667L25.5643 22.5393L28.304 21.1901C27.0512 21.6582 14.3162 26.2841 12.6503 26.8899C12.3336 27 12.0032 27.0275 11.6728 26.9725L4.99552 25.7471C4.91291 25.7196 4.85785 25.637 4.87162 25.5544L4.88538 25.4718C4.88538 25.4718 11.6453 26.6971 11.9894 26.6833C12.3474 26.6696 38.8913 16.5642 38.8913 16.5642C38.8913 16.5642 41.3694 15.628 41.9477 14.7744Z" fill="#873cb2"/>
<defs>
<linearGradient id="paint0_linear_74_39" x1="4.78433" y1="12.6943" x2="42.0039" y2="12.6943" gradientUnits="userSpaceOnUse">
<stop stop-color="#4F0DF4"/>
<stop offset="1" stop-color="#873cb2"/>
</linearGradient>
</defs>
</svg>
